<svg xmlns="http://www.w3.org/2000/svg" xmlns:xlink="http://www.w3.org/1999/xlink" width="500" zoomAndPan="magnify" viewBox="0 0 375 374.999991" height="500" preserveAspectRatio="xMidYMid meet" version="1.0"><defs><clipPath id="6925a1da8e"><path d="M 63 95 L 312 95 L 312 350.167969 L 63 350.167969 Z M 63 95 " clip-rule="nonzero"/></clipPath><clipPath id="fc36a282e1"><path d="M 33 24.667969 L 341 24.667969 L 341 202 L 33 202 Z M 33 24.667969 " clip-rule="nonzero"/></clipPath></defs><g clip-path="url(#6925a1da8e)"><path fill="#ffffff" d="M 63.375 218.691406 L 63.375 344.421875 C 63.375 347.578125 65.941406 350.148438 69.109375 350.148438 L 204.164062 350.148438 L 204.164062 236.300781 L 267.609375 236.300781 L 267.609375 350.148438 L 305.347656 350.148438 C 308.519531 350.148438 311.078125 347.578125 311.078125 344.421875 L 311.078125 218.691406 L 187.300781 95.550781 Z M 164.097656 289.339844 L 106.847656 289.339844 L 106.847656 236.308594 L 164.097656 236.308594 Z M 164.097656 289.339844 " fill-opacity="1" fill-rule="nonzero"/></g><g clip-path="url(#fc36a282e1)"><path fill="#ffffff" d="M 336.167969 173.480469 L 187.234375 24.6875 L 116.976562 94.878906 L 116.976562 63.988281 C 116.976562 56.773438 111.113281 50.914062 103.890625 50.914062 C 96.667969 50.914062 90.808594 56.773438 90.808594 63.988281 L 90.808594 121.023438 L 38.296875 173.480469 C 31.902344 179.867188 31.902344 190.214844 38.296875 196.59375 C 41.488281 199.78125 45.675781 201.378906 49.863281 201.378906 C 54.046875 201.378906 58.226562 199.78125 61.425781 196.601562 L 187.242188 70.910156 L 313.042969 196.59375 C 319.433594 202.980469 329.78125 202.980469 336.167969 196.59375 C 342.550781 190.207031 342.550781 179.859375 336.167969 173.480469 Z M 336.167969 173.480469 " fill-opacity="1" fill-rule="nonzero"/></g></svg>